<svg width="30" height="20" viewBox="0 0 30 20" fill="none" xmlns="http://www.w3.org/2000/svg">
<path d="M15 0C8.33333 0 2.63999 4.14667 0.333328 10C2.63999 15.8533 8.33333 20 15 20C21.6667 20 27.36 15.8533 29.6667 10C27.36 4.14667 21.6667 0 15 0ZM15 16.6667C11.32 16.6667 8.33333 13.68 8.33333 10C8.33333 6.32 11.32 3.33333 15 3.33333C18.68 3.33333 21.6667 6.32 21.6667 10C21.6667 13.68 18.68 16.6667 15 16.6667ZM15 6C12.7867 6 11 7.78667 11 10C11 12.2133 12.7867 14 15 14C17.2133 14 19 12.2133 19 10C19 7.78667 17.2133 6 15 6Z" fill="#FCB782"/>
</svg>
